<mxfile host="app.diagrams.net" agent="Mozilla/5.0 (Windows NT 10.0; Win64; x64) AppleWebKit/537.36 (KHTML, like Gecko) Chrome/128.0.0.0 Safari/537.36" version="24.7.14">
  <diagram name="Страница — 1" id="LSi3TGajm5O3kH8BYB37">
    <mxGraphModel dx="987" dy="496" grid="1" gridSize="10" guides="1" tooltips="1" connect="1" arrows="1" fold="1" page="1" pageScale="1" pageWidth="827" pageHeight="1169" math="0" shadow="0">
      <root>
        <mxCell id="0" />
        <mxCell id="1" parent="0" />
        <mxCell id="Ljhx5bphE9XS9A-qMBcL-5" value="&lt;p style=&quot;margin:0px;margin-top:4px;text-align:center;&quot;&gt;&amp;lt;&amp;lt;interface&amp;gt;&amp;gt;&lt;br&gt;&lt;b&gt;I1&lt;/b&gt;&lt;/p&gt;&lt;hr size=&quot;1&quot; style=&quot;border-style:solid;&quot;&gt;&lt;p style=&quot;margin:0px;margin-left:4px;&quot;&gt; &amp;lt;&amp;lt;getter/setter&amp;gt;&amp;gt; + MyProperty: string {get; set;}&lt;br&gt;+ MyMethod(message: string): void&lt;br&gt;&amp;lt;&amp;lt;event&amp;gt;&amp;gt;&amp;nbsp;+ MyEvent: EventHandler &lt;br&gt;&amp;lt;&amp;lt;indexer&amp;gt;&amp;gt;&amp;nbsp;+ this[index: int]: string {get; set;}&lt;br&gt;&lt;/p&gt;" style="verticalAlign=top;align=left;overflow=fill;html=1;whiteSpace=wrap;" vertex="1" parent="1">
          <mxGeometry x="310" y="210" width="280" height="110" as="geometry" />
        </mxCell>
      </root>
    </mxGraphModel>
  </diagram>
</mxfile>
